<svg id="Capa_1" enable-background="new 0 0 497 497" height="512" viewBox="0 0 497 497" width="512" xmlns="http://www.w3.org/2000/svg"><g><path d="m248.5 0v497c4.966 0 9.355-2.424 12.085-6.141.021 0 140.047-191.036 140.047-191.036 22.853-31.196 36.368-69.679 36.368-111.323 0-104.106-84.394-188.5-188.5-188.5z" fill="#e04b3a"/><path d="m248.5 0c-104.106 0-188.5 84.394-188.5 188.5 0 41.644 13.515 80.127 36.383 111.322-.016 0 140.011 191.036 140.011 191.036 2.751 3.718 7.14 6.141 12.106 6.141 4.176 0 7.866-2.424 10.162-6.141.017 0 117.759-191.036 117.759-191.036 19.215-31.195 30.579-69.678 30.579-111.322 0-104.106-70.963-188.5-158.5-188.5z" fill="#ff6145"/><circle cx="248.5" cy="188.5" fill="#e5f9ff" r="158.5"/><path d="m138.225 124.833c-.65 1.12-1.005 2.407-1.005 3.747v119.84c0 2.679 1.429 5.155 3.75 6.495l103.78 59.92c1.16.67 2.455 1.005 3.75 1.005l81.28-191.59z" fill="#ff9457"/><path d="m358.775 124.833-110.28-.583 81.284 145.82 26.25-15.155c2.32-1.34 3.75-3.816 3.75-6.495v-119.84c.001-1.34-.354-2.627-1.004-3.747z" fill="#ff6145"/><path d="m329.78 141.57-81.28-17.32v191.59c1.295 0 2.59-.335 3.75-1.005l77.53-44.765v-34.64l-15-17.321 15-17.321z" fill="#ff7e4f"/><path d="m329.784 200.789-51.284 29.609v34.641l51.284-29.609z" fill="#fff"/><path d="m356.031 122.085-103.781-59.92c-2.32-1.34-5.179-1.34-7.5 0l-51.89 29.955 15 64.26h96.28l54.635-31.547c-.647-1.121-1.584-2.078-2.744-2.748z" fill="#ff9457"/><path d="m192.86 92.12-51.891 29.965c-1.16.67-2.097 1.627-2.745 2.748l110.276 63.667 55.64-32.12z" fill="#ffae6b"/></g></svg>